<?xml version="1.0" encoding="utf-8"?>
<!-- Generator: Adobe Illustrator 19.1.0, SVG Export Plug-In . SVG Version: 6.00 Build 0)  -->
<svg version="1.1" xmlns="http://www.w3.org/2000/svg" xmlns:xlink="http://www.w3.org/1999/xlink" x="0px" y="0px"
	 viewBox="0 0 742.1 223.4" enable-background="new 0 0 742.1 223.4" xml:space="preserve">
<g>
	<path fill="#FFFFFF" d="M34.9,93.8c0-24.6,16.1-45.4,38.4-52.5H0l35.5,60.9C35.1,99.5,34.9,96.7,34.9,93.8L34.9,93.8L34.9,93.8z"/>
	<path fill="#FFFFFF" d="M83,144.6c-10.6,0-20.3-3.5-28.2-9.3L83,183.7l28.2-48.4C103.4,141.1,93.6,144.6,83,144.6L83,144.6
		L83,144.6z"/>
	<path fill="#FFFFFF" d="M166.1,41.3c0,0-64,0-65.3,0c-37.2,0-46.1,28.9-46.1,42.5c0,6.1,1.3,11.9,3.6,17.1c0.4,0.7,0.7,1.4,1,2.1
		c4.4,8.1,12.9,13.6,22.6,14c0,0,0,0,0,0l0,0c0,0,0,0,0,0l0,0c0.4,0,0.8,0,1.1,0c0.3,0,0.7,0,1,0c10.6-0.5,19-9.3,19-20
		c0-11.1-9-20-20-20.1c0.4-0.3,0.7-0.7,1.1-1c4.9-4.2,11.4-6.7,18.3-6.7c15.7,0,28.4,12.7,28.4,28.4c0,1.6-0.1,3.1-0.4,4.6
		L166.1,41.3L166.1,41.3L166.1,41.3z"/>
	<path fill="#FFFFFF" d="M182.4,90.8c0,0-7.1-17.5-7.2-17.9c-0.3-1-0.2-1.9,0.9-2.3h-9.4c1.3,0.5,1.8,1.2,2.3,2
		c0.8,1.6,11.9,27.8,11.9,27.8s10.3-26.2,11-27.8c0.4-1,0.5-1.3,1.6-2h-5.2c1.1,0.4,1.3,1,0.9,2.1C189.2,72.9,182.4,90.8,182.4,90.8
		L182.4,90.8z"/>
	<path fill="#FFFFFF" d="M236.2,81.8c-4-1.8-5.8-2.8-5.8-5.4c0-1.8,1.3-4.1,4.5-4.1c4.1,0,6.5,3.4,7.1,5.7l-0.2-6.3
		c-2.2-1.3-5-1.6-6.4-1.6c-3.9,0-9.3,2.3-9.3,8.1c0,3.2,1.7,5.5,5.6,7.7c3.9,2.1,7.6,2.6,7.6,6.7c0,2.1-1.3,5.1-5.5,5.1
		c-4.4,0-7-4-7.8-7l0.2,7.2c1.5,0.7,4.3,2,8.2,2c5.2,0,9.9-3.6,9.9-8.9C244.3,85,240.2,83.6,236.2,81.8L236.2,81.8z"/>
	<path fill="#FFFFFF" d="M269.1,72.9c1,0.1,1.6,1,2,1.7v-4.1h-23.3v4.1c0.4-0.7,1.1-1.7,2.1-1.7c0,0,3.7-0.3,6.8-0.3v24.9
		c0,0.9-0.4,1.5-1.1,1.9h7.6c-0.6-0.4-1.1-1-1.1-1.9V72.6C265.2,72.6,269.1,72.9,269.1,72.9L269.1,72.9z"/>
	<path fill-rule="evenodd" clip-rule="evenodd" fill="#FFFFFF" d="M296.6,77.7c0-2.9-2-7.2-10.8-7.2h-9.2c0.7,0.3,1.1,0.9,1.1,1.9
		v25.1c0,0.9-0.4,1.5-1.1,1.9h7.7c-0.7-0.4-1.2-1-1.2-1.9V85.9c0,0,1.4-0.1,1.9-0.1c1.8,0,2.8,1.8,3.9,3.5c1.5,2.4,3.4,5.5,5.3,8.2
		c0.8,1,2.2,2,3.8,2l5.5-0.1c0,0-1.9-0.7-2.7-1.7c-1.5-1.7-6.6-9.8-6.6-9.8c-0.6-0.9-1.9-2.9-4.8-3.2
		C292.5,84.6,296.6,82.3,296.6,77.7L296.6,77.7z M285.6,72.6c4.2,0,5.4,3.4,5.4,5.4c0,4.3-3.1,5.9-6,5.9c-0.7,0-1.9-0.1-1.9-0.1
		V72.6C283.1,72.6,284.3,72.6,285.6,72.6L285.6,72.6z"/>
	<path fill-rule="evenodd" clip-rule="evenodd" fill="#FFFFFF" d="M319.2,69.6c0,0-11.2,26.2-12,27.8c-0.4,0.8-0.8,1.3-2,2.1h5.9
		c-1.2-0.5-1.4-1.1-1-2.1c0.1-0.5,1.1-3,2.4-5.9h10.4c1.2,2.9,2.3,5.5,2.4,5.9c0.3,0.9,0.1,1.5-1,2.1h9.1c-1.4-0.7-1.7-1.2-2.1-2.1
		C330.5,95.8,319.2,69.6,319.2,69.6L319.2,69.6z M313.3,89.3c1.4-3.2,4.3-10.4,4.3-10.4s2.3,5.7,4.3,10.4H313.3L313.3,89.3z"/>
	<path fill="#FFFFFF" d="M212.5,67.7c1.2,0,2.2-0.9,2.2-2.2c0-1.2-1-2.1-2.2-2.1c-1.2,0-2.1,0.9-2.1,2.1
		C210.4,66.8,211.3,67.7,212.5,67.7L212.5,67.7z"/>
	<path fill-rule="evenodd" clip-rule="evenodd" fill="#FFFFFF" d="M222.2,99.5c-1.4-0.7-1.7-1.2-2.1-2.1
		c-0.8-1.6-12.1-27.8-12.1-27.8s-11.2,26.2-12,27.8c-0.4,0.8-0.8,1.3-2,2.1h5.9c-1.2-0.5-1.4-1.1-1-2.1c0.1-0.5,1.1-3,2.4-5.9h10.4
		c1.2,2.9,2.3,5.5,2.4,5.9c0.3,0.9,0.1,1.5-1,2.1H222.2L222.2,99.5z M202.1,89.3c1.4-3.2,4.3-10.4,4.3-10.4s2.3,5.7,4.3,10.4H202.1
		L202.1,89.3z"/>
	<path fill="#FFFFFF" d="M203,67.7c1.2,0,2.2-0.9,2.2-2.2c0-1.2-1-2.1-2.2-2.1c-1.2,0-2.1,0.9-2.1,2.1
		C200.9,66.8,201.9,67.7,203,67.7L203,67.7z"/>
	<path fill="#FFFFFF" d="M185.7,114c-11,0-16.6,7.7-16.6,15.2c0,9.2,7.6,15,16.1,15c3.4,0,9.5-1.1,13.2-3.1
		c-0.2-0.1-0.7-0.9-0.7-1.8v-6.4c0-1,0.5-1.6,1.1-2h-7.7c0.7,0.4,1.1,1,1.1,2v7.5c-2,1.3-4.6,1.4-5.5,1.4c-8.9,0-11.8-7.3-11.8-13.2
		c0-6.9,4.2-12.3,11.5-12.3c2,0,7.5,0.9,9.7,6.8l-0.3-6.8C192.4,114.8,189.2,114,185.7,114L185.7,114z"/>
	<path fill="#FFFFFF" d="M262.7,116.9c1,0.1,1.6,1,2,1.7v-4.2h-23.6v4.2c0.4-0.7,1.1-1.7,2.1-1.7c0,0,3.7-0.3,6.9-0.3v25.2
		c0,0.9-0.4,1.5-1.1,1.9h7.7c-0.6-0.4-1.1-1-1.1-1.9v-25.2C258.8,116.6,262.7,116.9,262.7,116.9L262.7,116.9z"/>
	<path fill-rule="evenodd" clip-rule="evenodd" fill="#FFFFFF" d="M279.9,113.6c0,0-11.3,26.4-12.1,28c-0.4,0.8-0.8,1.3-2,2.1h5.9
		c-1.2-0.5-1.4-1.1-1-2.2c0.1-0.5,1.1-3,2.4-5.9h10.5c1.2,2.9,2.3,5.5,2.5,6c0.3,0.9,0.1,1.5-1,2.1h9.2c-1.4-0.7-1.7-1.2-2.1-2.1
		C291.3,140,279.9,113.6,279.9,113.6L279.9,113.6z M273.9,133.4c1.4-3.2,4.3-10.5,4.3-10.5s2.4,5.8,4.4,10.5H273.9L273.9,133.4z"/>
	<path fill="#FFFFFF" d="M308.1,114.5h-7.8c0.7,0.3,1.2,0.9,1.2,1.9v25.4c0,0.9-0.5,1.5-1.2,1.9h18.1l0.9-4.9
		c-1.3,2.5-2.8,2.5-7.6,2.7c-1.9,0-3.9-0.2-4.8-0.2v-24.9C307,115.4,307.4,114.8,308.1,114.5L308.1,114.5z"/>
	<path fill-rule="evenodd" clip-rule="evenodd" fill="#FFFFFF" d="M336.9,113.6c0,0-11.3,26.4-12.1,28c-0.4,0.8-0.8,1.3-2,2.1h5.9
		c-1.2-0.5-1.4-1.1-1-2.2c0.1-0.5,1.1-3,2.4-5.9h10.5c1.2,2.9,2.3,5.5,2.5,6c0.3,0.9,0.1,1.5-1,2.1h9.2c-1.4-0.7-1.7-1.2-2.1-2.1
		C348.4,140,336.9,113.6,336.9,113.6L336.9,113.6z M331,133.4c1.4-3.2,4.3-10.5,4.3-10.5s2.4,5.8,4.4,10.5H331L331,133.4z"/>
	<path fill="#FFFFFF" d="M379.1,133.4l-15.9-18.9h-7.4c0.9,0.5,1.5,1.1,1.9,1.6c0.8,1,0.8,1,0.8,2.7v23c0,0.9-0.5,1.5-1.1,1.9h4.8
		c-0.7-0.4-1.2-1-1.2-1.9v-21.5c0,0.3,20.6,24.7,20.6,24.7v-28.5c0-1,0.5-1.6,1.1-1.9H378c0.7,0.3,1.1,0.9,1.1,1.9V133.4
		L379.1,133.4z"/>
	<path fill-rule="evenodd" clip-rule="evenodd" fill="#FFFFFF" d="M405.2,114.5h-11.4c0.6,0.3,1.1,0.9,1.1,1.9v25.4
		c0,0.9-0.5,1.5-1.1,1.9h11.1c11.6,0,17.4-7.6,17.4-15.1C422.2,124.5,419.3,114.5,405.2,114.5L405.2,114.5z M404.3,116.6
		c8.9,0,11.9,6.9,11.9,12c0,6.3-2.7,12.8-12.4,12.8c-0.8,0-2.4,0-3.4,0v-24.8C401,116.6,403.2,116.6,404.3,116.6L404.3,116.6z"/>
	<path fill="#FFFFFF" d="M441,125.8c-4-1.8-5.9-2.8-5.9-5.5c0-1.8,1.3-4.1,4.6-4.1c4.1,0,6.6,3.4,7.2,5.7l-0.2-6.4
		c-2.2-1.3-5-1.6-6.5-1.6c-3.9,0-9.4,2.3-9.4,8.2c0,3.3,1.7,5.6,5.7,7.8c3.9,2.1,7.7,2.7,7.7,6.8c0,2.1-1.3,5.2-5.5,5.2
		c-4.5,0-7.1-4-7.9-7.1l0.2,7.3c1.5,0.7,4.3,2.1,8.3,2.1c5.3,0,10-3.7,10-9C449.2,129.1,445,127.7,441,125.8L441,125.8z"/>
	<path fill-rule="evenodd" clip-rule="evenodd" fill="#FFFFFF" d="M479.2,121.7c0-2.9-2-7.2-10.9-7.2H459c0.7,0.3,1.1,0.9,1.1,1.9
		v25.4c0,0.9-0.4,1.5-1.1,1.9h7.8c-0.7-0.4-1.2-1-1.2-1.9V130c0,0,1.4-0.1,1.9-0.1c1.8,0,2.8,1.8,4,3.6c1.5,2.4,3.4,5.5,5.4,8.3
		c0.8,1,2.2,2,3.8,2l5.6-0.1c0,0-1.9-0.7-2.8-1.7c-1.5-1.7-6.7-9.9-6.7-9.9c-0.6-0.9-1.9-2.9-4.9-3.2
		C475,128.6,479.2,126.3,479.2,121.7L479.2,121.7z M468,116.5c4.3,0,5.5,3.4,5.5,5.4c0,4.3-3.1,6-6,6c-0.7,0-1.9-0.1-1.9-0.1v-11.2
		C465.5,116.6,466.7,116.5,468,116.5L468,116.5z"/>
	<path fill="#FFFFFF" d="M509,114.5h-17.3c0.7,0.3,1.3,0.9,1.3,1.9v25.4c0,1-0.6,1.5-1.3,1.9h18.5l0.9-4.9c-1.6,2.7-3.3,2.6-7.1,2.7
		c-2.1,0.1-4.7-0.1-5.6-0.2v-12.6h6.5c0.6,0,1.3,0.6,1.5,1.2v-4.6c-0.2,0.5-0.9,1.2-1.5,1.2h-6.5v-9.9c0,0,6,0,7.3,0.1
		c1.6,0.1,2.5,0.4,3.4,1.5L509,114.5L509,114.5z"/>
	<path fill="#FFFFFF" d="M533.6,114c-11,0-16.6,7.7-16.6,15.2c0,9.2,7.6,15,16.1,15c3.4,0,9.5-1.1,13.2-3.1
		c-0.2-0.1-0.7-0.9-0.7-1.8v-6.4c0-1,0.5-1.6,1.1-2H539c0.7,0.4,1.1,1,1.1,2v7.5c-2,1.3-4.6,1.4-5.5,1.4c-8.9,0-11.8-7.3-11.8-13.2
		c0-6.9,4.2-12.3,11.5-12.3c2,0,7.5,0.9,9.7,6.8l-0.3-6.8C540.3,114.8,537.1,114,533.6,114L533.6,114z"/>
	<path fill="#FFFFFF" d="M556.4,114.5c0.7,0.3,1.1,0.9,1.1,1.9v25.4c0,0.9-0.4,1.5-1.1,1.9h7.8c-0.7-0.4-1.1-1-1.1-1.9v-25.4
		c0-1,0.4-1.6,1.1-1.9H556.4L556.4,114.5z"/>
	<path fill-rule="evenodd" clip-rule="evenodd" fill="#FFFFFF" d="M605.1,129.2c0.1-9.8-8.2-15.1-15.6-15.2
		c-10.3-0.1-16.3,7.4-16.4,14.8c-0.2,8.8,7.1,15.2,15.7,15.3C596.6,144.2,604.9,139.2,605.1,129.2L605.1,129.2z M589.1,116.2
		c5.7,0,10,4.9,9.9,13.2c0,7.8-4.2,12.3-9.8,12.3c-4.9,0-10.1-4.2-10.1-13.3C579.2,120.7,583.5,116.2,589.1,116.2L589.1,116.2z"/>
	<path fill="#FFFFFF" d="M634.7,133.4l-15.9-18.9h-7.4c0.9,0.5,1.5,1.1,1.9,1.6c0.8,1,0.8,1,0.8,2.7v23c0,0.9-0.5,1.5-1.1,1.9h4.8
		c-0.7-0.4-1.2-1-1.2-1.9v-21.5c0,0.3,20.6,24.7,20.6,24.7v-28.5c0-1,0.5-1.6,1.1-1.9h-4.8c0.7,0.3,1.1,0.9,1.1,1.9V133.4
		L634.7,133.4z"/>
	<path fill="#FFFFFF" d="M665.6,114.5h-17.3c0.7,0.3,1.3,0.9,1.3,1.9v25.4c0,1-0.6,1.5-1.3,1.9h18.5l0.9-4.9
		c-1.6,2.7-3.3,2.6-7.1,2.7c-2.1,0.1-4.7-0.1-5.6-0.2v-12.6h6.5c0.6,0,1.3,0.6,1.5,1.2v-4.6c-0.2,0.5-0.9,1.2-1.5,1.2h-6.5v-9.9
		c0,0,6,0,7.3,0.1c1.6,0.1,2.5,0.4,3.4,1.5L665.6,114.5L665.6,114.5z"/>
	<path fill="#FFFFFF" d="M697.8,133.4l-15.9-18.9h-7.4c0.9,0.5,1.5,1.1,1.9,1.6c0.8,1,0.8,1,0.8,2.7v23c0,0.9-0.5,1.5-1.1,1.9h4.8
		c-0.7-0.4-1.2-1-1.2-1.9v-21.5c0,0.3,20.6,24.7,20.6,24.7v-28.5c0-1,0.5-1.6,1.1-1.9h-4.8c0.7,0.3,1.1,0.9,1.1,1.9V133.4
		L697.8,133.4z"/>
	<path fill-rule="evenodd" clip-rule="evenodd" fill="#FFFFFF" d="M237.5,129.2c0.1-9.8-8.2-15.1-15.6-15.2
		c-10.3-0.1-16.3,7.4-16.4,14.8c-0.2,8.8,7.1,15.2,15.7,15.3C229.1,144.2,237.4,139.2,237.5,129.2L237.5,129.2z M221.6,116.2
		c5.7,0,10,4.9,9.9,13.2c0,7.8-4.2,12.3-9.8,12.3c-4.9,0-10.1-4.2-10.1-13.3C211.6,120.7,215.9,116.2,221.6,116.2L221.6,116.2z"/>
	<path fill="#FFFFFF" d="M226.3,111.9c1.2,0,2.2-0.9,2.2-2.2c0-1.2-1-2.1-2.2-2.1s-2.1,0.9-2.1,2.1
		C224.1,110.9,225.1,111.9,226.3,111.9L226.3,111.9z"/>
	<path fill="#FFFFFF" d="M216.7,111.9c1.2,0,2.2-0.9,2.2-2.2c0-1.2-1-2.1-2.2-2.1c-1.2,0-2.1,0.9-2.1,2.1
		C214.6,110.9,215.5,111.9,216.7,111.9L216.7,111.9z"/>
</g>
</svg>
